<svg xmlns="http://www.w3.org/2000/svg" width="454" height="102.966" viewBox="0 0 454 102.966">
  <g id="Group_1107" data-name="Group 1107" transform="translate(-88 -64.789)">
    <g id="Group_1106" data-name="Group 1106" transform="translate(804.461 6949.016)">
      <path id="Path_49457" data-name="Path 49457" d="M237.168,0a51.615,51.615,0,0,0-31.69,11.568,53.408,53.408,0,0,0-18,27.887h13.6a38.437,38.437,0,0,1,36.434-26c16.592,0,38.417,15.765,38.44,38.211.016,15.666-10.6,30.318-26.54,36.3v13.567c23.411-6.906,39.415-27.481,39.608-49.867.166-19.136-11.254-35.72-25.2-44.259A51.123,51.123,0,0,0,237.168,0" transform="translate(-902.017 -6884.227)" fill="#7b19ab"/>
      <path id="Path_49458" data-name="Path 49458" d="M224.49,56.18l14.717-.077a20.4,20.4,0,0,1,10.859-7.128,20.618,20.618,0,0,1,16.122,2.836c8.388,5.705,8.726,15.381,8.738,16.1.168,9.9-7.2,15.668-7.971,16.25q-.039,7.358-.077,14.717c1.448-.566,15.968-6.538,20.082-22.612.317-1.239,3.839-16.043-6.055-28.59a32.874,32.874,0,0,0-37.1-10.424c-13.155,4.887-18.378,16.7-19.315,18.932" transform="translate(-919.584 -6900.95)" fill="#7b19ab"/>
      <path id="Path_49459" data-name="Path 49459" d="M222.113,128.619l7.48,6.93-7.455-6.9-4.764,5.148,9.493,8.784,4.763-5.147.016.015,13.562-13.262q-.03,11.135-.06,22.269a44.249,44.249,0,0,0,13.031-.153q.051-26.9.1-53.808l-36.168,36.122" transform="translate(-916.207 -6928.127)" fill="#00d290"/>
      <path id="Path_49460" data-name="Path 49460" d="M184.64,85.507a32.714,32.714,0,0,0-.2,13.592l21.9.179-18.373,18.182,9.63,8.911-.027.03.009.008,40.775-40.673-53.706-.23" transform="translate(-900.281 -6924.81)" fill="#00d290"/>
    </g>
    <text id="THRYVO" transform="translate(216 121.005)" fill="#7b19ab" font-size="45" font-family="CreatoDisplay-Bold, Creato Display" font-weight="700"><tspan x="0" y="0">TH</tspan><tspan y="0" letter-spacing="-0.049em">R</tspan><tspan y="0">Y</tspan><tspan y="0" letter-spacing="-0.043em">V</tspan><tspan y="0">O</tspan></text>
    <text id="One_Platform._Endless_Possibilities" data-name="One Platform. Endless Possibilities" transform="translate(216 149.538)" fill="#1a1818" font-size="22" font-family="CreatoDisplay-Regular, Creato Display"><tspan x="0" y="0">One Pl</tspan><tspan y="0" letter-spacing="-0.01em">a</tspan><tspan y="0">t</tspan><tspan y="0" letter-spacing="-0.032em">f</tspan><tspan y="0">orm. Endless </tspan><tspan y="0" letter-spacing="-0.019em">P</tspan><tspan y="0">ossibilities</tspan></text>
  </g>
</svg>
