<svg xmlns="http://www.w3.org/2000/svg" width="16.195" height="14.734" viewBox="0 0 16.195 14.734">
  <g id="view-hide-svgrepo-com" transform="translate(0 0.707)">
    <path id="Path_48423" data-name="Path 48423" d="M14.535,11.96a3.3,3.3,0,0,0-3.894-3.894ZM8.55,9.475a3.3,3.3,0,0,0,4.575,4.575l-1.216-1.216a1.651,1.651,0,0,1-2.143-2.143Z" transform="translate(-3.239 -3.049)" fill="#0d0b0e" fill-rule="evenodd"/>
    <path id="Path_48424" data-name="Path 48424" d="M14.02,15.43l-1.212-1.212a5.452,5.452,0,0,1-2.516.684A6.285,6.285,0,0,1,6.71,13.554a14.05,14.05,0,0,1-2.537-2.424c-.082-.1-.144-.175-.195-.241s-.066-.088-.083-.114c.017-.026.042-.062.083-.114s.112-.141.195-.241A14.142,14.142,0,0,1,6.639,8.048L5.46,6.87A16.012,16.012,0,0,0,2.9,9.372l-.061.073h0a2.054,2.054,0,0,0-.608,1.331,2.054,2.054,0,0,0,.608,1.331h0l.06.073a15.69,15.69,0,0,0,2.847,2.714,7.912,7.912,0,0,0,4.545,1.657A7.349,7.349,0,0,0,14.02,15.43ZM7.657,5.566A6.743,6.743,0,0,1,10.291,5a7.911,7.911,0,0,1,4.545,1.658,15.689,15.689,0,0,1,2.847,2.714l.061.073h0a2.054,2.054,0,0,1,.608,1.331,2.054,2.054,0,0,1-.608,1.331l-.061.073a16.907,16.907,0,0,1-1.662,1.751l-1.168-1.168a15.223,15.223,0,0,0,1.557-1.632c.082-.1.144-.175.195-.241s.066-.088.083-.114c-.017-.026-.042-.062-.083-.114s-.112-.141-.195-.241A14.052,14.052,0,0,0,13.873,8,6.284,6.284,0,0,0,10.291,6.65a4.755,4.755,0,0,0-1.347.2Z" transform="translate(-2.23 -2.525)" fill="#0d0b0e" fill-rule="evenodd"/>
    <path id="Path_48425" data-name="Path 48425" d="M5,2,18.2,15.2" transform="translate(-2.714 -2)" fill="none" stroke="#33363f" stroke-width="2"/>
  </g>
</svg>
