<svg xmlns="http://www.w3.org/2000/svg" width="193.399" height="52.556" viewBox="0 0 193.399 52.556">
  <g id="Group_1520" data-name="Group 1520" transform="translate(954.399 6269)">
    <g id="Group_1106" data-name="Group 1106" transform="translate(-954.399 -6269)">
      <path id="Path_49457" data-name="Path 49457" d="M212.84,0a26.345,26.345,0,0,0-16.175,5.9,27.26,27.26,0,0,0-9.188,14.234h6.94a19.619,19.619,0,0,1,18.6-13.27c8.469,0,19.609,8.047,19.62,19.5.008,8-5.411,15.475-13.546,18.528v6.925C231.036,48.3,239.2,37.8,239.3,26.373c.085-9.767-5.744-18.232-12.862-22.59A26.094,26.094,0,0,0,212.84,0" transform="translate(-186.496 0)" fill="#fff"/>
      <path id="Path_49458" data-name="Path 49458" d="M224.49,45.925,232,45.886a10.41,10.41,0,0,1,5.542-3.638,10.524,10.524,0,0,1,8.229,1.448,10.705,10.705,0,0,1,4.46,8.216,10.63,10.63,0,0,1-4.069,8.294q-.02,3.756-.039,7.512c.739-.289,8.15-3.337,10.25-11.541.162-.632,1.959-8.189-3.091-14.593a16.779,16.779,0,0,0-18.936-5.321,17.84,17.84,0,0,0-9.859,9.663" transform="translate(-213.584 -25.786)" fill="#fff"/>
      <path id="Path_49459" data-name="Path 49459" d="M219.794,110.934l3.818,3.537-3.805-3.521-2.431,2.628,4.846,4.484,2.431-2.627.008.008,6.922-6.769q-.015,5.683-.031,11.366a22.586,22.586,0,0,0,6.651-.078q.026-13.732.052-27.465l-18.461,18.437" transform="translate(-208.377 -67.693)" fill="#fff"/>
      <path id="Path_49460" data-name="Path 49460" d="M184.238,85.507a16.7,16.7,0,0,0-.1,6.938l11.176.091-9.378,9.28,4.915,4.548-.014.015,0,0,20.812-20.76-27.412-.117" transform="translate(-183.82 -62.577)" fill="#fff"/>
    </g>
    <text id="THRYVO" transform="translate(-886 -6233)" fill="#fff" font-size="29" font-family="CreatoDisplay-Bold, Creato Display" font-weight="700"><tspan x="0" y="0">TH</tspan><tspan y="0" letter-spacing="-0.049em">R</tspan><tspan y="0">Y</tspan><tspan y="0" letter-spacing="-0.043em">V</tspan><tspan y="0">O</tspan></text>
  </g>
</svg>
