<svg id="waffle-menu_12252614" xmlns="http://www.w3.org/2000/svg" width="36" height="36" viewBox="0 0 36 36">
  <path id="Path_49462" data-name="Path 49462" d="M190.834,181h-8.741A1.093,1.093,0,0,0,181,182.093v8.741a1.093,1.093,0,0,0,1.093,1.093h8.741a1.093,1.093,0,0,0,1.093-1.093v-8.741A1.093,1.093,0,0,0,190.834,181Zm-1.093,8.741h-6.556v-6.556h6.556Z" transform="translate(-168.463 -168.463)" fill="#0d0b0e"/>
  <path id="Path_49463" data-name="Path 49463" d="M371.834,181h-8.741A1.093,1.093,0,0,0,362,182.093v8.741a1.093,1.093,0,0,0,1.093,1.093h8.741a1.093,1.093,0,0,0,1.093-1.093v-8.741A1.093,1.093,0,0,0,371.834,181Zm-1.093,8.741h-6.556v-6.556h6.556Z" transform="translate(-336.926 -168.463)" fill="#0d0b0e"/>
  <path id="Path_49464" data-name="Path 49464" d="M9.834,181H1.093A1.093,1.093,0,0,0,0,182.093v8.741a1.093,1.093,0,0,0,1.093,1.093H9.834a1.093,1.093,0,0,0,1.093-1.093v-8.741A1.093,1.093,0,0,0,9.834,181Zm-1.093,8.741H2.185v-6.556H8.741Z" transform="translate(0 -168.463)" fill="#0d0b0e"/>
  <path id="Path_49465" data-name="Path 49465" d="M190.834,362h-8.741A1.093,1.093,0,0,0,181,363.093v8.741a1.093,1.093,0,0,0,1.093,1.093h8.741a1.093,1.093,0,0,0,1.093-1.093v-8.741A1.093,1.093,0,0,0,190.834,362Zm-1.093,8.741h-6.556v-6.556h6.556Z" transform="translate(-168.463 -336.926)" fill="#0d0b0e"/>
  <path id="Path_49466" data-name="Path 49466" d="M371.834,362h-8.741A1.093,1.093,0,0,0,362,363.093v8.741a1.093,1.093,0,0,0,1.093,1.093h8.741a1.093,1.093,0,0,0,1.093-1.093v-8.741A1.093,1.093,0,0,0,371.834,362Zm-1.093,8.741h-6.556v-6.556h6.556Z" transform="translate(-336.926 -336.926)" fill="#0d0b0e"/>
  <path id="Path_49467" data-name="Path 49467" d="M9.834,362H1.093A1.093,1.093,0,0,0,0,363.093v8.741a1.093,1.093,0,0,0,1.093,1.093H9.834a1.093,1.093,0,0,0,1.093-1.093v-8.741A1.093,1.093,0,0,0,9.834,362Zm-1.093,8.741H2.185v-6.556H8.741Z" transform="translate(0 -336.926)" fill="#0d0b0e"/>
  <path id="Path_49468" data-name="Path 49468" d="M190.834,0h-8.741A1.093,1.093,0,0,0,181,1.093V9.834a1.093,1.093,0,0,0,1.093,1.093h8.741a1.093,1.093,0,0,0,1.093-1.093V1.093A1.093,1.093,0,0,0,190.834,0Zm-1.093,8.741h-6.556V2.185h6.556Z" transform="translate(-168.463)" fill="#0d0b0e"/>
  <path id="Path_49469" data-name="Path 49469" d="M371.834,0h-8.741A1.093,1.093,0,0,0,362,1.093V9.834a1.093,1.093,0,0,0,1.093,1.093h8.741a1.093,1.093,0,0,0,1.093-1.093V1.093A1.093,1.093,0,0,0,371.834,0Zm-1.093,8.741h-6.556V2.185h6.556Z" transform="translate(-336.926)" fill="#0d0b0e"/>
  <path id="Path_49470" data-name="Path 49470" d="M9.834,0H1.093A1.093,1.093,0,0,0,0,1.093V9.834a1.093,1.093,0,0,0,1.093,1.093H9.834a1.093,1.093,0,0,0,1.093-1.093V1.093A1.093,1.093,0,0,0,9.834,0ZM8.741,8.741H2.185V2.185H8.741Z" fill="#0d0b0e"/>
</svg>
