<svg id="Component_40_1" data-name="Component 40 – 1" xmlns="http://www.w3.org/2000/svg" width="35.575" height="26.682" viewBox="0 0 35.575 26.682">
  <path id="Path" d="M32.351,3.447H1.223A2.223,2.223,0,1,1,1.223-1H32.351a2.223,2.223,0,0,1,0,4.447Z" transform="translate(1 1)" fill="#fff"/>
  <path id="Path-2" data-name="Path" d="M32.351,3.447H1.223A2.223,2.223,0,1,1,1.223-1H32.351a2.223,2.223,0,0,1,0,4.447Z" transform="translate(1 23.235)" fill="#fff"/>
  <path id="Path-3" data-name="Path" d="M32.351,3.447H1.223A2.223,2.223,0,1,1,1.223-1H32.351a2.223,2.223,0,0,1,0,4.447Z" transform="translate(1 12.117)" fill="#fff"/>
</svg>
