<svg id="Component_38_8" data-name="Component 38 – 8" xmlns="http://www.w3.org/2000/svg" width="32" height="36.409" viewBox="0 0 32 36.409">
  <g id="notification_2645897" transform="translate(-30.999 1)">
    <path id="Path_49388" data-name="Path 49388" d="M58.021,18.692v-3.4A11.042,11.042,0,0,0,50.2,4.741V3.2a3.2,3.2,0,1,0-6.4,0V4.741a11.042,11.042,0,0,0-7.822,10.548v3.4A16.749,16.749,0,0,1,31.3,30.337a1.067,1.067,0,0,0,.77,1.8h9.707a5.334,5.334,0,0,0,10.452,0h9.707a1.067,1.067,0,0,0,.77-1.8A16.749,16.749,0,0,1,58.021,18.692ZM45.932,3.2a1.067,1.067,0,1,1,2.133,0V4.318c-.351-.034-.707-.052-1.067-.052s-.716.018-1.067.052ZM47,34.275a3.205,3.205,0,0,1-3.017-2.133h6.033A3.205,3.205,0,0,1,47,34.275ZM34.365,30.009A18.859,18.859,0,0,0,38.11,18.692v-3.4a8.889,8.889,0,1,1,17.778,0v3.4a18.859,18.859,0,0,0,3.745,11.316Z" transform="translate(0)" fill="#730ba6"/>
    <path id="Path_49390" data-name="Path 49390" d="M32.067,64.2a1.067,1.067,0,0,0,1.067-1.067,13.776,13.776,0,0,1,4.061-9.805,1.067,1.067,0,0,0-1.508-1.508A15.9,15.9,0,0,0,31,63.134,1.067,1.067,0,0,0,32.067,64.2Z" transform="translate(-0.001 -47.845)" fill="#730ba6"/>
  </g>
  <circle id="Ellipse_2" data-name="Ellipse 2" cx="7.5" cy="7.5" r="7.5" transform="translate(19)" fill="#00d290"/>
</svg>
