<svg xmlns="http://www.w3.org/2000/svg" width="24.61" height="24.5" viewBox="0 0 24.61 24.5">
  <g id="Group_1741" data-name="Group 1741" transform="translate(-2854 4836.25)">
    <path id="Union_7" data-name="Union 7" d="M.289,12.317a.98.98,0,0,1,0-1.392L3.137,8.091V4.731a.99.99,0,0,1,.283-.693L7.176.284A.975.975,0,0,1,7.865,0,.986.986,0,0,1,8.25.079a.974.974,0,0,1,.6.9V3.755h2.773a.987.987,0,0,1,.7,1.675L8.573,9.187a.971.971,0,0,1-.69.284H4.519L1.684,12.319a.981.981,0,0,1-1.395,0Z" transform="translate(2866 -4836.248)" fill="#730ba6"/>
    <path id="Union_8" data-name="Union 8" d="M0,12.25A12.264,12.264,0,0,1,12.25,0l.53,0a.985.985,0,0,1-.116,1.964l-.076,0-.338,0a10.289,10.289,0,1,0,10.29,10.3v-.014a2.874,2.874,0,0,0,0-.318V11.92a.98.98,0,0,1,.9-1.065c.028,0,.059,0,.09,0a.983.983,0,0,1,.628.228,1,1,0,0,1,.347.642v.529a12.25,12.25,0,0,1-24.5,0Zm11.766,7.173A7.241,7.241,0,0,1,10.8,5.1a1.005,1.005,0,0,1,.4,1.971,5.28,5.28,0,0,0,.635,10.452c.122.009.246.014.369.014A5.3,5.3,0,0,0,17.375,13.3a1.007,1.007,0,0,1,.985-.808.973.973,0,0,1,.2.021,1,1,0,0,1,.8,1.113l-.031.247-.029,0a7.267,7.267,0,0,1-7.041,5.565C12.1,19.439,11.933,19.434,11.766,19.423Z" transform="translate(2854 -4836.25)" fill="#730ba6"/>
  </g>
</svg>
