<svg id="log-out_3596149" xmlns="http://www.w3.org/2000/svg" width="24.4" height="24.399" viewBox="0 0 24.4 24.399">
  <path id="Path_49850" data-name="Path 49850" d="M15.25,13.216a1.016,1.016,0,0,0-1.017,1.017V18.3a1.018,1.018,0,0,1-1.017,1.017h-3.05V4.067A2.049,2.049,0,0,0,8.782,2.134l-.3-.1h4.736A1.018,1.018,0,0,1,14.233,3.05V6.1a1.017,1.017,0,1,0,2.033,0V3.05A3.054,3.054,0,0,0,13.216,0H2.287a.794.794,0,0,0-.109.022C2.13.018,2.083,0,2.033,0A2.035,2.035,0,0,0,0,2.033v18.3a2.049,2.049,0,0,0,1.385,1.933L7.5,24.3a2.105,2.105,0,0,0,.63.095,2.035,2.035,0,0,0,2.033-2.033V21.349h3.05a3.054,3.054,0,0,0,3.05-3.05V14.233a1.016,1.016,0,0,0-1.017-1.017Z" fill="#730ba6"/>
  <path id="Path_49851" data-name="Path 49851" d="M23.885,9.364,19.819,5.3a1.016,1.016,0,0,0-1.735.719v3.05H14.017a1.017,1.017,0,1,0,0,2.033h4.067v3.05a1.016,1.016,0,0,0,1.735.719L23.885,10.8a1.016,1.016,0,0,0,0-1.438Z" transform="translate(0.216 0.083)" fill="#730ba6"/>
</svg>
