<svg xmlns="http://www.w3.org/2000/svg" width="24" height="21.77" viewBox="0 0 24 21.77">
  <g id="Group_1732" data-name="Group 1732" transform="translate(-3027.25 4849.75)">
    <path id="Union_6" data-name="Union 6" d="M10.644,21.5A3.512,3.512,0,0,1,9.5,20.728l-2.309-2.31H5.3a5.3,5.3,0,0,1-5.3-5.3V5.3A5.3,5.3,0,0,1,5.3,0H18.7A5.3,5.3,0,0,1,24,5.3v7.814a5.3,5.3,0,0,1-5.3,5.3H16.812L14.5,20.73a3.527,3.527,0,0,1-3.857.769Z" transform="translate(3027.25 -4849.75)" fill="#730ba6"/>
    <path id="Path_49823" data-name="Path 49823" d="M18.163,9H7" transform="translate(3026.669 -4851.215)" fill="#730ba6"/>
    <path id="Path_49823_-_Outline" data-name="Path 49823 - Outline" d="M18.25,9.924H7.087a.837.837,0,1,1,0-1.674H18.25a.837.837,0,1,1,0,1.674Z" transform="translate(3026.581 -4851.302)" fill="#fff"/>
    <path id="Path_49824" data-name="Path 49824" d="M13.7,12H7" transform="translate(3026.669 -4850.866)" fill="#730ba6"/>
    <path id="Path_49824_-_Outline" data-name="Path 49824 - Outline" d="M13.785,12.924h-6.7a.837.837,0,0,1,0-1.674h6.7a.837.837,0,0,1,0,1.674Z" transform="translate(3026.581 -4850.954)" fill="#fff"/>
  </g>
</svg>
