<svg id="group-svgrepo-com_2_" data-name="group-svgrepo-com (2)" xmlns="http://www.w3.org/2000/svg" width="24" height="19.2" viewBox="0 0 24 19.2">
  <path id="Path_49831" data-name="Path 49831" d="M15.851,13.039a2.442,2.442,0,0,0,1,.125,4.114,4.114,0,1,0,0-8.229H16.6A5.929,5.929,0,0,1,17.726,8.55,6.32,6.32,0,0,1,15.851,13.039Z" transform="translate(0.77 -3.813)" fill="#730ba6"/>
  <path id="Path_49832" data-name="Path 49832" d="M18.184,13.143h-.875a6.853,6.853,0,0,1,2.625,5.486,6.245,6.245,0,0,1-.25,1.5,10.145,10.145,0,0,0,2.5-.748,1.631,1.631,0,0,0,.75-1.5A4.663,4.663,0,0,0,18.184,13.143Z" transform="translate(1.062 -2.171)" fill="#730ba6"/>
  <path id="Path_49833" data-name="Path 49833" d="M8,13.184a2.758,2.758,0,0,0,1-.125A6.709,6.709,0,0,1,7.124,8.447,5.929,5.929,0,0,1,8.249,4.831H8a4.177,4.177,0,0,0,0,8.353Z" transform="translate(-1.625 -3.834)" fill="#730ba6"/>
  <path id="Path_49834" data-name="Path 49834" d="M7.5,13.143h-.75A4.741,4.741,0,0,0,2,17.88a1.631,1.631,0,0,0,.75,1.5,6.591,6.591,0,0,0,2.5.748,6.243,6.243,0,0,1-.25-1.5A7.108,7.108,0,0,1,7.5,13.143Z" transform="translate(-2 -2.171)" fill="#730ba6"/>
  <path id="Path_49835" data-name="Path 49835" d="M9.915,12.228a4.64,4.64,0,0,0,5.749,0,4.429,4.429,0,0,0,1.75-3.616,4.241,4.241,0,0,0-1.125-2.992A4.654,4.654,0,0,0,12.789,4a4.461,4.461,0,0,0-3.5,1.621A4.348,4.348,0,0,0,8.04,8.613,4.542,4.542,0,0,0,9.915,12.228Z" transform="translate(-0.792 -4)" fill="#730ba6"/>
  <path id="Path_49836" data-name="Path 49836" d="M15.726,13.351H10.477a5.359,5.359,0,0,0-4.624,5.236,1.788,1.788,0,0,0,.875,1.621c.875.5,2.624,1.122,6.249,1.122s5.374-.623,6.249-1.122a1.816,1.816,0,0,0,.875-1.621A4.848,4.848,0,0,0,15.726,13.351Z" transform="translate(-1.229 -2.13)" fill="#730ba6"/>
</svg>
