<svg xmlns="http://www.w3.org/2000/svg" width="25.5" height="24.417" viewBox="0 0 25.5 24.417">
  <g id="Group_1735" data-name="Group 1735" transform="translate(-2855.495 4776.298)">
    <path id="Path_49844" data-name="Path 49844" d="M2,14.937V12.827a2.286,2.286,0,0,1,2.279-2.279c2.171,0,3.058-1.535,1.967-3.418a2.278,2.278,0,0,1,.84-3.106L9.16,2.836a2,2,0,0,1,2.735.72l.132.228c1.079,1.883,2.855,1.883,3.946,0l.132-.228a2,2,0,0,1,2.735-.72l2.075,1.187a2.278,2.278,0,0,1,.84,3.106c-1.091,1.883-.2,3.418,1.967,3.418A2.286,2.286,0,0,1,26,12.827v2.111a2.286,2.286,0,0,1-2.279,2.279c-2.171,0-3.058,1.535-1.967,3.418a2.275,2.275,0,0,1-.84,3.106L18.84,24.928a2,2,0,0,1-2.735-.72l-.132-.228c-1.079-1.883-2.855-1.883-3.946,0l-.132.228a2,2,0,0,1-2.735.72L7.085,23.741a2.278,2.278,0,0,1-.84-3.106c1.091-1.883.2-3.418-1.967-3.418A2.286,2.286,0,0,1,2,14.937Z" transform="translate(2854.245 -4777.969)" fill="#730ba6" stroke="#730ba6" stroke-linecap="round" stroke-linejoin="round" stroke-miterlimit="10" stroke-width="1.5"/>
    <path id="Path_49843" data-name="Path 49843" d="M12.6,16.2A3.6,3.6,0,1,0,9,12.6,3.6,3.6,0,0,0,12.6,16.2Z" transform="translate(2855.641 -4776.686)" fill="#fff" stroke="#fff" stroke-linecap="round" stroke-linejoin="round" stroke-miterlimit="10" stroke-width="1.5"/>
  </g>
</svg>
