<svg xmlns="http://www.w3.org/2000/svg" width="24" height="24" viewBox="0 0 24 24">
  <g id="Group_1734" data-name="Group 1734" transform="translate(-2877.575 4802.699)">
    <path id="Union_10" data-name="Union 10" d="M.154,4.165,0,4.13V0H2.778V4.13l-.154.035A5.593,5.593,0,0,1,1.389,4.3,5.591,5.591,0,0,1,.154,4.165Z" transform="translate(2888.185 -4789.42)" fill="#730ba6"/>
    <path id="Union_9" data-name="Union 9" d="M0,2.14,1.07,0,2.14,2.14Z" transform="translate(2888.505 -4792.593)" fill="#730ba6"/>
    <path id="Subtraction_15" data-name="Subtraction 15" d="M13.191,24H10.809a1.233,1.233,0,0,1-1.232-1.231v-.048A1.873,1.873,0,0,0,8.4,20.972l-.19-.079a1.892,1.892,0,0,0-.745-.153,1.872,1.872,0,0,0-1.332.554,1.232,1.232,0,0,1-1.741,0L2.706,19.609a1.232,1.232,0,0,1,0-1.741,1.881,1.881,0,0,0,.4-2.078c-.027-.062-.053-.125-.079-.19a1.874,1.874,0,0,0-1.749-1.177H1.231A1.233,1.233,0,0,1,0,13.191V10.809A1.233,1.233,0,0,1,1.231,9.577h.048A1.874,1.874,0,0,0,3.028,8.4c.028-.07.054-.132.079-.19a1.881,1.881,0,0,0-.4-2.078,1.232,1.232,0,0,1,0-1.741L4.391,2.706a1.232,1.232,0,0,1,1.741,0,1.872,1.872,0,0,0,1.332.554,1.89,1.89,0,0,0,.746-.154l.19-.078A1.874,1.874,0,0,0,9.577,1.279V1.231A1.233,1.233,0,0,1,10.809,0h2.382a1.233,1.233,0,0,1,1.231,1.231v.048A1.874,1.874,0,0,0,15.6,3.028c.075.03.138.056.191.079a1.889,1.889,0,0,0,.745.153,1.874,1.874,0,0,0,1.332-.554,1.232,1.232,0,0,1,1.741,0l1.685,1.685a1.232,1.232,0,0,1,0,1.741,1.882,1.882,0,0,0-.4,2.078c.025.057.049.116.079.19a1.873,1.873,0,0,0,1.749,1.177h.048A1.233,1.233,0,0,1,24,10.809v2.383a1.233,1.233,0,0,1-1.231,1.231h-.048A1.873,1.873,0,0,0,20.972,15.6c-.029.072-.054.133-.079.191a1.881,1.881,0,0,0,.4,2.077,1.232,1.232,0,0,1,0,1.741l-1.685,1.685a1.233,1.233,0,0,1-1.741,0,1.884,1.884,0,0,0-2.078-.4c-.048.021-.114.048-.19.079a1.873,1.873,0,0,0-1.177,1.749v.048A1.233,1.233,0,0,1,13.191,24ZM12,4.988A7.012,7.012,0,1,0,19.012,12,7.02,7.02,0,0,0,12,4.988Z" transform="translate(2877.574 -4802.699)" fill="#730ba6"/>
    <path id="Subtraction_16" data-name="Subtraction 16" d="M2.368,9.538h0A5.189,5.189,0,1,1,9.74,7.664,5.225,5.225,0,0,1,8.006,9.537V5.949a.917.917,0,0,0-.1-.408L6,1.729a.913.913,0,0,0-1.633,0L2.464,5.541a.915.915,0,0,0-.1.408V9.538Z" transform="translate(2884.388 -4795.886)" fill="#730ba6"/>
  </g>
</svg>
