<svg xmlns="http://www.w3.org/2000/svg" width="24" height="23.984" viewBox="0 0 24 23.984">
  <path id="home_4556837" d="M12,.021a3.034,3.034,0,0,1,1.842.617l.011.009,9,7.071A2.971,2.971,0,0,1,24,10.078V21.005a3.007,3.007,0,0,1-3,3H16.5a3.007,3.007,0,0,1-3-3V17.255h-3v3.75a3.007,3.007,0,0,1-3,3H3a3.007,3.007,0,0,1-3-3V10.077a2.973,2.973,0,0,1,1.146-2.36l.2-.16L10.158.638A3.034,3.034,0,0,1,12,.021Zm.933,1.81a1.557,1.557,0,0,0-1.866,0L2.041,8.922A1.483,1.483,0,0,0,1.5,10.075v10.93a1.5,1.5,0,0,0,1.5,1.5H7.5A1.5,1.5,0,0,0,9,21V17.255a1.5,1.5,0,0,1,1.5-1.5h3a1.5,1.5,0,0,1,1.5,1.5v3.75a1.5,1.5,0,0,0,1.5,1.5H21A1.5,1.5,0,0,0,22.5,21V10.077A1.482,1.482,0,0,0,21.928,8.9Z" transform="translate(0 -0.021)" fill="#0d0b0e"/>
</svg>
