<svg xmlns="http://www.w3.org/2000/svg" width="24.8" height="24.799" viewBox="0 0 24.8 24.799">
  <path id="Union_13" data-name="Union 13" d="M7.632,24.669l-5.987-2A2.4,2.4,0,0,1,0,20.4V2.4A2.4,2.4,0,0,1,2.4,0H13.9a2.9,2.9,0,0,1,2.9,2.9v5a.9.9,0,1,1-1.8,0v-5a1.1,1.1,0,0,0-1.1-1.1H8.176l.978.326A2.394,2.394,0,0,1,10.8,4.4V20h3.1A1.1,1.1,0,0,0,15,18.9v-5a.9.9,0,0,1,1.8,0v5a2.9,2.9,0,0,1-2.9,2.9H10.8v.6a2.4,2.4,0,0,1-2.4,2.4A2.308,2.308,0,0,1,7.632,24.669ZM1.8,2.4v18a.6.6,0,0,0,.415.567l6.007,2A.572.572,0,0,0,8.41,23a.588.588,0,0,0,.41-.178A.6.6,0,0,0,9,22.4V4.4a.6.6,0,0,0-.414-.565l-6.009-2A.529.529,0,0,0,2.4,1.8.6.6,0,0,0,1.8,2.4ZM19.264,15.538a.9.9,0,0,1,0-1.274L21.727,11.8H13.9a.9.9,0,0,1,0-1.8h7.826L19.263,7.538a.9.9,0,1,1,1.273-1.273l3.977,3.976a.9.9,0,0,1,.214,1.014l-.006.014h0a.892.892,0,0,1-.184.267l-4,4a.9.9,0,0,1-1.271,0Z"/>
</svg>
