<svg xmlns="http://www.w3.org/2000/svg" width="24" height="21.77" viewBox="0 0 24 21.77">
  <g id="message-text-svgrepo-com" transform="translate(-1.25 -2.25)">
    <path id="Path_49822" data-name="Path 49822" d="M13.25,24.019a3.527,3.527,0,0,1-2.5-1.042L8.438,20.669H6.552a5.3,5.3,0,0,1-5.3-5.3V7.552a5.3,5.3,0,0,1,5.3-5.3h13.4a5.3,5.3,0,0,1,5.3,5.3v7.814a5.3,5.3,0,0,1-5.3,5.3H18.062L15.751,22.98a3.527,3.527,0,0,1-2.5,1.04Zm-6.7-20.1A3.628,3.628,0,0,0,2.924,7.552v7.814a3.628,3.628,0,0,0,3.628,3.628H8.785a.837.837,0,0,1,.592.245L11.933,21.8a1.853,1.853,0,0,0,2.632,0l2.558-2.558a.837.837,0,0,1,.592-.245h2.233a3.628,3.628,0,0,0,3.628-3.628V7.552a3.628,3.628,0,0,0-3.628-3.628Z" transform="translate(0 0)" fill="#0d0b0e"/>
    <path id="Path_49823" data-name="Path 49823" d="M18.25,9.924H7.087a.837.837,0,1,1,0-1.674H18.25a.837.837,0,1,1,0,1.674Z" transform="translate(0.581 0.698)" fill="#0d0b0e"/>
    <path id="Path_49824" data-name="Path 49824" d="M13.785,12.924h-6.7a.837.837,0,0,1,0-1.674h6.7a.837.837,0,0,1,0,1.674Z" transform="translate(0.581 1.047)" fill="#0d0b0e"/>
  </g>
</svg>
