<svg id="Component_35_2" data-name="Component 35 – 2" xmlns="http://www.w3.org/2000/svg" width="36" height="36" viewBox="0 0 36 36">
  <path id="XMLID_17_" d="M166,0h-3.429A2.572,2.572,0,0,0,160,2.571V6a2.572,2.572,0,0,0,2.571,2.571H166A2.571,2.571,0,0,0,168.571,6V2.571A2.571,2.571,0,0,0,166,0Z" transform="translate(-132.572)" fill="#fff"/>
  <path id="XMLID_18_" d="M86,0H82.571A2.571,2.571,0,0,0,80,2.571V6a2.571,2.571,0,0,0,2.571,2.571H86A2.571,2.571,0,0,0,88.571,6V2.571A2.571,2.571,0,0,0,86,0Z" transform="translate(-66.286)" fill="#fff"/>
  <path id="XMLID_19_" d="M6,0H2.571A2.571,2.571,0,0,0,0,2.571V6A2.571,2.571,0,0,0,2.571,8.571H6A2.571,2.571,0,0,0,8.571,6V2.571A2.571,2.571,0,0,0,6,0Z" fill="#fff"/>
  <path id="XMLID_20_" d="M166,160h-3.429A2.572,2.572,0,0,0,160,162.571V166a2.572,2.572,0,0,0,2.571,2.571H166A2.571,2.571,0,0,0,168.571,166v-3.429A2.572,2.572,0,0,0,166,160Z" transform="translate(-132.572 -132.571)" fill="#fff"/>
  <path id="XMLID_21_" d="M86,160H82.571A2.572,2.572,0,0,0,80,162.571V166a2.571,2.571,0,0,0,2.571,2.571H86A2.571,2.571,0,0,0,88.571,166v-3.429A2.572,2.572,0,0,0,86,160Z" transform="translate(-66.286 -132.571)" fill="#fff"/>
  <path id="XMLID_22_" d="M6,160H2.571A2.572,2.572,0,0,0,0,162.571V166a2.571,2.571,0,0,0,2.571,2.571H6A2.571,2.571,0,0,0,8.571,166v-3.429A2.572,2.572,0,0,0,6,160Z" transform="translate(0 -132.571)" fill="#fff"/>
  <path id="XMLID_23_" d="M166,80h-3.429A2.572,2.572,0,0,0,160,82.571V86a2.572,2.572,0,0,0,2.571,2.571H166A2.571,2.571,0,0,0,168.571,86V82.571A2.571,2.571,0,0,0,166,80Z" transform="translate(-132.572 -66.286)" fill="#fff"/>
  <path id="XMLID_24_" d="M86,80H82.571A2.572,2.572,0,0,0,80,82.571V86a2.572,2.572,0,0,0,2.571,2.571H86A2.572,2.572,0,0,0,88.571,86V82.571A2.572,2.572,0,0,0,86,80Z" transform="translate(-66.286 -66.286)" fill="#fff"/>
  <path id="XMLID_25_" d="M6,80H2.571A2.571,2.571,0,0,0,0,82.571V86a2.571,2.571,0,0,0,2.571,2.571H6A2.571,2.571,0,0,0,8.571,86V82.571A2.571,2.571,0,0,0,6,80Z" transform="translate(0 -66.286)" fill="#fff"/>
</svg>
