<svg xmlns="http://www.w3.org/2000/svg" width="24" height="19.099" viewBox="0 0 24 19.099">
  <g id="Group_1733" data-name="Group 1733" transform="translate(-2822.25 4863.75)">
    <path id="Subtraction_6" data-name="Subtraction 6" d="M4.458,8.979A4.489,4.489,0,1,1,8.917,4.489,4.479,4.479,0,0,1,4.458,8.979Zm0-7.592a3.1,3.1,0,1,0,3.084,3.1A3.1,3.1,0,0,0,4.458,1.387Z" transform="translate(2829.792 -4863.75)" fill="#0d0b0e"/>
    <path id="Subtraction_9" data-name="Subtraction 9" d="M6.972,7.712C3.348,7.712,1.6,7.127.766,6.636A1.7,1.7,0,0,1,0,5.147,5.136,5.136,0,0,1,5.113,0H8.832a5.136,5.136,0,0,1,5.113,5.147,1.7,1.7,0,0,1-.766,1.488C12.347,7.127,10.6,7.712,6.972,7.712ZM5.113,1.387a3.754,3.754,0,0,0-3.738,3.76.774.774,0,0,0,.012.136.1.1,0,0,0,0,.017l.024.112.1.056c.573.32,2.044.856,5.457.856s4.884-.536,5.457-.856l.1-.06.023-.116a.046.046,0,0,0,0-.011.685.685,0,0,0,.012-.135,3.754,3.754,0,0,0-3.738-3.76Z" transform="translate(2827.279 -4852.364)" fill="#0d0b0e"/>
    <path id="Subtraction_7" data-name="Subtraction 7" d="M.686,7.713a.694.694,0,0,1-.08-1.382A2.4,2.4,0,0,0,2.514,3.857,2.524,2.524,0,0,0,.823,1.363.694.694,0,0,1,1,0a.662.662,0,0,1,.179.025A3.879,3.879,0,0,1,3.888,3.857,3.748,3.748,0,0,1,.769,7.708C.738,7.711.711,7.713.686,7.713Z" transform="translate(2839.848 -4862.485)" fill="#0d0b0e"/>
    <path id="Subtraction_8" data-name="Subtraction 8" d="M1.105,6.447A.694.694,0,0,1,.97,5.074a4.619,4.619,0,0,0,1.411-.483l.107-.064L2.5,4.408a.8.8,0,0,0,.01-.13V3.765A2.436,2.436,0,0,0,.556,1.374.694.694,0,0,1,.686,0,.639.639,0,0,1,.818.013a3.823,3.823,0,0,1,3.07,3.752v.513a1.666,1.666,0,0,1-.7,1.442,5.719,5.719,0,0,1-1.943.713A.687.687,0,0,1,1.105,6.447Z" transform="translate(2842.362 -4852.364)" fill="#0d0b0e"/>
    <path id="Subtraction_5" data-name="Subtraction 5" d="M2.887,7.713a.662.662,0,0,1-.179-.024A3.88,3.88,0,0,1,0,3.857,3.748,3.748,0,0,1,3.119.006.635.635,0,0,1,3.2,0a.694.694,0,0,1,.08,1.382A2.393,2.393,0,0,0,1.374,3.857,2.521,2.521,0,0,0,3.065,6.35a.694.694,0,0,1-.178,1.363Z" transform="translate(2824.764 -4862.485)" fill="#0d0b0e"/>
    <path id="Subtraction_10" data-name="Subtraction 10" d="M2.783,6.447a.687.687,0,0,1-.137-.014A5.714,5.714,0,0,1,.7,5.72,1.666,1.666,0,0,1,0,4.278V3.765A3.823,3.823,0,0,1,3.07.013.639.639,0,0,1,3.2,0a.694.694,0,0,1,.13,1.374A2.436,2.436,0,0,0,1.374,3.765v.513a.835.835,0,0,0,.01.133L1.4,4.53l.1.062a4.619,4.619,0,0,0,1.411.483.694.694,0,0,1-.135,1.373Z" transform="translate(2822.25 -4852.364)" fill="#0d0b0e"/>
  </g>
</svg>
