<svg xmlns="http://www.w3.org/2000/svg" width="24" height="26.681" viewBox="0 0 24 26.681">
  <g id="Group_1730" data-name="Group 1730" transform="translate(-2822.3 4926.018)">
    <path id="Path_49820" data-name="Path 49820" d="M11.8.3a6,6,0,1,1-6,6A6.007,6.007,0,0,1,11.8.3Zm0,10.645A4.645,4.645,0,1,0,7.155,6.3,4.65,4.65,0,0,0,11.8,10.945Z" transform="translate(2822.547 -4926.317)" fill="#0d0b0e"/>
    <path id="Path_49821" data-name="Path 49821" d="M7.693,13.3H18.908A6.4,6.4,0,0,1,25.3,19.693v3.365a1.909,1.909,0,0,1-1.907,1.907H3.207A1.909,1.909,0,0,1,1.3,23.057V19.693A6.4,6.4,0,0,1,7.693,13.3Zm15.7,10.094a.337.337,0,0,0,.336-.336V19.693a4.828,4.828,0,0,0-4.822-4.822H7.693A4.828,4.828,0,0,0,2.87,19.693v3.365a.337.337,0,0,0,.336.336Z" transform="translate(2821 -4924.3)" fill="#0d0b0e"/>
  </g>
</svg>
