<svg xmlns="http://www.w3.org/2000/svg" width="25.75" height="24.525" viewBox="0 0 25.75 24.525">
  <g id="setting-2-svgrepo-com" transform="translate(-1.25 -1.67)">
    <path id="Path_49843" data-name="Path 49843" d="M12.636,16.271A3.636,3.636,0,1,0,9,12.636,3.636,3.636,0,0,0,12.636,16.271Z" transform="translate(1.483 1.364)" fill="none" stroke="#0d0b0e" stroke-linecap="round" stroke-linejoin="round" stroke-miterlimit="10" stroke-width="1.5"/>
    <path id="Path_49844" data-name="Path 49844" d="M2,15.066V12.933a2.309,2.309,0,0,1,2.3-2.3c2.193,0,3.09-1.551,1.987-3.454a2.3,2.3,0,0,1,.848-3.139l2.1-1.2A2.023,2.023,0,0,1,12,3.566l.133.23c1.091,1.9,2.884,1.9,3.987,0l.133-.23a2.023,2.023,0,0,1,2.763-.727l2.1,1.2a2.3,2.3,0,0,1,.848,3.139c-1.1,1.9-.206,3.454,1.987,3.454a2.309,2.309,0,0,1,2.3,2.3v2.133a2.309,2.309,0,0,1-2.3,2.3c-2.193,0-3.09,1.551-1.987,3.454a2.3,2.3,0,0,1-.848,3.139l-2.1,1.2a2.023,2.023,0,0,1-2.763-.727l-.133-.23c-1.091-1.9-2.884-1.9-3.987,0l-.133.23a2.023,2.023,0,0,1-2.763.727l-2.1-1.2a2.3,2.3,0,0,1-.848-3.139c1.1-1.9.206-3.454-1.987-3.454A2.309,2.309,0,0,1,2,15.066Z" fill="none" stroke="#0d0b0e" stroke-linecap="round" stroke-linejoin="round" stroke-miterlimit="10" stroke-width="1.5"/>
  </g>
</svg>
