<svg xmlns="http://www.w3.org/2000/svg" width="24.3" height="24.3" viewBox="0 0 24.3 24.3">
  <path id="Union_12" data-name="Union 12" d="M10.958,24.3a1.384,1.384,0,0,1-1.382-1.382v-.048a1.725,1.725,0,0,0-1.083-1.61c-.073-.029-.136-.055-.193-.08a1.731,1.731,0,0,0-1.912.369,1.383,1.383,0,0,1-1.954,0L2.75,19.865a1.382,1.382,0,0,1,0-1.953A1.733,1.733,0,0,0,3.119,16c-.026-.059-.052-.122-.08-.193a1.725,1.725,0,0,0-1.61-1.083H1.382A1.383,1.383,0,0,1,0,13.342V10.958A1.383,1.383,0,0,1,1.382,9.577h.048a1.725,1.725,0,0,0,1.61-1.083c.023-.059.05-.123.08-.193A1.733,1.733,0,0,0,2.75,6.388a1.383,1.383,0,0,1,0-1.954L4.434,2.75a1.383,1.383,0,0,1,1.954,0A1.736,1.736,0,0,0,8.3,3.119c.061-.026.127-.054.193-.08a1.725,1.725,0,0,0,1.083-1.61V1.382A1.383,1.383,0,0,1,10.958,0h2.383a1.383,1.383,0,0,1,1.382,1.382v.048a1.725,1.725,0,0,0,1.083,1.61l.193.08a1.742,1.742,0,0,0,.687.14,1.725,1.725,0,0,0,1.226-.509,1.383,1.383,0,0,1,1.954,0L21.55,4.434a1.383,1.383,0,0,1,0,1.954A1.733,1.733,0,0,0,21.181,8.3c.026.06.053.125.08.193a1.725,1.725,0,0,0,1.61,1.083h.048A1.384,1.384,0,0,1,24.3,10.958v2.383a1.384,1.384,0,0,1-1.382,1.382h-.048a1.723,1.723,0,0,0-1.609,1.083c-.031.075-.057.138-.081.193a1.733,1.733,0,0,0,.369,1.913,1.383,1.383,0,0,1,0,1.954L19.865,21.55a1.382,1.382,0,0,1-1.953,0,1.725,1.725,0,0,0-1.226-.509,1.752,1.752,0,0,0-.687.14c-.07.03-.133.057-.193.08a1.725,1.725,0,0,0-1.083,1.61v.048A1.384,1.384,0,0,1,13.342,24.3ZM8.824,19.954l.167.07a3.047,3.047,0,0,1,1.92,2.894v.048h2.479v-.048a3.047,3.047,0,0,1,1.92-2.894l.167-.069a3.056,3.056,0,0,1,3.379.653l.033.033,1.752-1.752-.033-.033a3.06,3.06,0,0,1-.653-3.379c.029-.067.05-.119.07-.167a3.047,3.047,0,0,1,2.894-1.92h.048V10.911h-.048a3.047,3.047,0,0,1-2.894-1.92c-.02-.048-.041-.1-.07-.167a3.057,3.057,0,0,1,.653-3.378l.033-.034L18.888,3.659l-.033.033a3.046,3.046,0,0,1-2.167.9,3.071,3.071,0,0,1-1.212-.249l-.167-.068a3.049,3.049,0,0,1-1.92-2.9V1.334H10.911v.048a3.047,3.047,0,0,1-1.92,2.894l-.167.069a3.063,3.063,0,0,1-1.211.249,3.039,3.039,0,0,1-2.166-.9l-.034-.033L3.659,5.412l.033.034a3.056,3.056,0,0,1,.652,3.378c-.022.052-.046.109-.068.167a3.048,3.048,0,0,1-2.9,1.921H1.334v2.479h.048a3.049,3.049,0,0,1,2.9,1.92c.026.065.048.118.068.167a3.058,3.058,0,0,1-.652,3.379l-.033.033,1.752,1.752.034-.033a3.046,3.046,0,0,1,2.166-.9A3.078,3.078,0,0,1,8.824,19.954Zm-3.44-7.8a6.766,6.766,0,1,1,6.766,6.766A6.774,6.774,0,0,1,5.384,12.15Zm5.527,5.289.037.009a5.5,5.5,0,0,0,2.431-.006l.037-.008V13.579h-2.5ZM6.718,12.15a5.445,5.445,0,0,0,2.788,4.744l.071.04V12.7a.673.673,0,0,1,.077-.311l1.906-3.6a.668.668,0,0,1,1.184.008l1.932,3.779a.673.673,0,0,1,.073.3v4.039l.072-.04a5.432,5.432,0,1,0-8.1-4.729Zm4.523.1H13.01l-.869-1.7Z"/>
</svg>
