<svg xmlns="http://www.w3.org/2000/svg" width="60.232" height="70.134" viewBox="0 0 60.232 70.134">
  <g id="Group_3339" data-name="Group 3339" style="isolation: isolate">
    <path id="Path_50299" data-name="Path 50299" d="M22.064,0h9.86a1.519,1.519,0,0,1,1.319,2.271L20.881,23.993A1.519,1.519,0,0,0,22.2,26.264H53.529a1.518,1.518,0,0,1,1.322.773l4.655,8.269a1.519,1.519,0,0,1-1.322,2.264H39.92a1.518,1.518,0,0,0-1.318.765L20.883,69.368a1.517,1.517,0,0,1-2.624.021l-5.074-8.569a1.52,1.52,0,0,1,0-1.556L24.878,39.771a1.519,1.519,0,0,0-1.285-2.3l-9.7-.1a1.517,1.517,0,0,0-1.324.748L7.511,46.7a1.517,1.517,0,0,1-2.644-.05Q2.524,42.3.182,37.958A1.518,1.518,0,0,1,.2,36.479L20.748.761A1.518,1.518,0,0,1,22.064,0" transform="translate(0 0)" fill="#730ba6"/>
    <path id="Path_50300" data-name="Path 50300" d="M72.806,0h10.94a1.188,1.188,0,0,1,1.029,1.782L72.467,23.115a1.187,1.187,0,0,1-1.029.594H60.325A1.188,1.188,0,0,1,59.3,21.922L71.78.588A1.189,1.189,0,0,1,72.806,0" transform="translate(-24.703 0)" fill="#00d290"/>
  </g>
</svg>
